<svg width="136" height="134" viewBox="0 0 136 134" fill="none" xmlns="http://www.w3.org/2000/svg">
<g clip-path="url(#clip0_1207_1281)">
<path d="M120.097 115.436C117.373 118.274 114.799 120.107 112.766 121.552C88.846 138.561 60.541 133.603 54.5284 132.392C45.6472 130.602 28.474 127.147 16.0625 112.685C-2.72378 90.7995 0.202815 56.3184 14.7682 33.5575C17.434 29.394 31.5068 6.28375 60.116 2.57961C77.4293 0.33511 97.6113 4.8624 112.225 16.9942C142.906 42.4638 140.723 93.915 120.097 115.436Z" fill="#DCF3E8"/>
<path d="M8.59143 0.947329C8.37411 0.277329 9.1613 -0.273028 9.73116 0.148115C15.5168 4.42176 29.7441 17.5729 29.5364 43.3823C29.2708 75.7624 37.3214 86.6595 46.4972 92.8235C46.4972 92.8235 34.6362 90.7752 26.0593 79.7633C4.99837 52.724 12.4839 12.859 8.59143 0.947329Z" fill="#6FB2AC"/>
<path d="M13.7106 10.4758C14.7731 13.9598 15.7631 17.4581 16.6275 20.99C17.5065 24.5171 18.2792 28.0681 18.936 31.6382C19.5831 35.2083 20.1578 38.7928 20.5828 42.3965C21.0223 45.9953 21.3024 49.6133 21.5728 53.2409C21.8626 56.8685 22.1379 60.5248 22.785 64.1619C23.4321 67.7943 24.5236 71.4075 26.2525 74.7144C26.6823 75.5376 27.1314 76.3607 27.624 77.1456C28.1021 77.94 28.614 78.7153 29.1453 79.481C30.2077 81.0076 31.3764 82.4625 32.6466 83.8264C35.1965 86.5495 38.1617 88.8849 41.3539 90.7896C41.692 90.9906 42.1266 90.8806 42.3295 90.5503C42.5275 90.2249 42.4261 89.799 42.1073 89.598C41.3443 89.1146 40.5861 88.6217 39.8568 88.1001C39.485 87.8416 39.1276 87.5736 38.7654 87.3056C38.4128 87.0281 38.0506 86.7601 37.7078 86.4729C36.3169 85.3387 35.0033 84.1136 33.796 82.7927C31.362 80.1701 29.3095 77.1791 27.653 74.0205C26.8417 72.4316 26.1511 70.7853 25.5909 69.096C25.0306 67.4018 24.6008 65.6646 24.2724 63.9035C23.6108 60.3764 23.3114 56.7584 22.9975 53.1356C22.6739 49.5081 22.3262 45.8709 21.8288 42.2481C21.5825 40.4391 21.3072 38.6301 20.9981 36.8307C20.8484 35.931 20.6794 35.0313 20.5152 34.1316C20.3413 33.2366 20.1626 32.3417 19.9743 31.4468C19.2209 27.8718 18.3565 24.3208 17.3809 20.8033C16.3909 17.2906 15.3043 13.8018 14.0825 10.3657C14.0487 10.2652 13.9376 10.2173 13.841 10.2508C13.7347 10.2748 13.6816 10.3753 13.7106 10.4758Z" fill="#37867E"/>
<path d="M35.9016 114.436C35.6746 115.714 34.2065 116.345 33.0958 115.652C26.9914 111.823 10.7116 99.4567 7.76569 74.9108C5.27856 54.1838 1.94146 43.1815 0.077322 38.2905C-0.318687 37.2568 0.850022 36.3235 1.78692 36.9265C12.1266 43.55 44.1309 68.1294 35.9016 114.436Z" fill="#55C0B7"/>
<path d="M34.1582 114.747C34.1341 114.771 34.1099 114.79 34.0809 114.809C33.8443 114.958 33.5256 114.891 33.3759 114.651C33.202 114.383 16.1543 87.5546 11.3781 58.893C11.3346 58.6154 11.5229 58.357 11.7982 58.3091C12.0783 58.2612 12.3391 58.4527 12.3874 58.7255C17.125 87.1813 34.0665 113.843 34.2355 114.106C34.3707 114.316 34.3321 114.584 34.1582 114.747Z" fill="#006E63"/>
<path d="M32.8446 2.67971C29.5413 2.96207 27.0107 5.70428 27.001 8.98728C26.9431 29.0681 26.8465 98.3366 28.1697 122.854C28.3098 125.452 30.4589 127.491 33.0812 127.52C46.0626 127.659 83.4033 127.912 104.604 126.567C109.018 126.29 112.457 122.662 112.452 118.279C112.428 97.2024 112.085 37.9265 109.173 10.8298C108.825 7.58507 106.188 5.04864 102.904 4.795C88.7494 3.70864 51.1527 1.10043 32.8446 2.67971Z" fill="#006F63"/>
<path d="M32.2167 14.247C31.9607 31.4277 31.2363 88.574 32.5016 109.665C32.6851 112.747 35.1047 115.183 38.0892 115.283C50.3751 115.709 81.8772 116.527 99.8279 114.57C103.059 114.216 105.531 111.44 105.618 108.081C106.067 90.5505 107.28 37.3237 106.048 16.4676C105.85 13.1415 103.286 10.4855 100.069 10.2701C86.7693 9.37996 52.6111 7.33167 37.3455 8.5951C34.4768 8.83438 32.2602 11.2751 32.2167 14.247Z" fill="#6FB2AC"/>
<path d="M61.8981 5.6658C61.9078 6.13959 62.2893 6.52244 62.7674 6.5368C65.129 6.60859 71.7887 6.80959 74.7684 6.91487C75.3576 6.93401 75.8019 6.4028 75.6812 5.8333C75.6715 5.81416 75.5942 5.08673 74.8408 5.03409C72.827 4.8953 66.7516 4.52201 62.7384 4.75173C61.9174 4.79959 61.874 5.72801 61.8981 5.6658Z" fill="white"/>
<path opacity="0.8" d="M52.2635 52.7047C61.1612 52.7047 68.3743 45.5569 68.3743 36.7396C68.3743 27.9223 61.1612 20.7744 52.2635 20.7744C43.3658 20.7744 36.1527 27.9223 36.1527 36.7396C36.1527 45.5569 43.3658 52.7047 52.2635 52.7047Z" fill="#37867E"/>
<mask id="mask0_1207_1281" style="mask-type:luminance" maskUnits="userSpaceOnUse" x="37" y="22" width="30" height="29">
<path d="M52.2635 50.9582C60.1877 50.9582 66.6115 44.5924 66.6115 36.7398C66.6115 28.8873 60.1877 22.5215 52.2635 22.5215C44.3393 22.5215 37.9154 28.8873 37.9154 36.7398C37.9154 44.5924 44.3393 50.9582 52.2635 50.9582Z" fill="white"/>
</mask>
<g mask="url(#mask0_1207_1281)">
<path d="M52.3263 39.339C55.799 39.339 58.6141 36.5492 58.6141 33.108C58.6141 29.6667 55.799 26.877 52.3263 26.877C48.8536 26.877 46.0385 29.6667 46.0385 33.108C46.0385 36.5492 48.8536 39.339 52.3263 39.339Z" fill="white"/>
</g>
<mask id="mask1_1207_1281" style="mask-type:luminance" maskUnits="userSpaceOnUse" x="37" y="22" width="30" height="29">
<path d="M52.2635 50.9582C60.1877 50.9582 66.6115 44.5924 66.6115 36.7398C66.6115 28.8873 60.1877 22.5215 52.2635 22.5215C44.3393 22.5215 37.9154 28.8873 37.9154 36.7398C37.9154 44.5924 44.3393 50.9582 52.2635 50.9582Z" fill="white"/>
</mask>
<g mask="url(#mask1_1207_1281)">
<path d="M42.7738 51.8196H62.806C64.0327 51.8196 64.7715 50.2451 64.1099 49.0486C62.41 45.9619 58.8459 41.425 52.6836 41.6308C46.7387 41.827 43.2181 45.9236 41.4457 48.8668C40.6923 50.1063 41.4602 51.8196 42.7738 51.8196Z" fill="white"/>
</g>
<path d="M90.6642 110.667H70.6223C69.9655 110.667 69.4294 110.135 69.4294 109.484V103.837C69.4294 103.186 69.9655 102.655 70.6223 102.655H90.6642C91.321 102.655 91.8571 103.186 91.8571 103.837V109.484C91.8571 110.14 91.321 110.667 90.6642 110.667Z" fill="#428F87"/>
<g opacity="0.8">
<g opacity="0.8">
<path d="M91.6325 70.4164H46.4199C46.0625 70.4164 45.7679 70.1245 45.7679 69.7704V66.6549C45.7679 66.3007 46.0625 66.0088 46.4199 66.0088H91.6325C91.9899 66.0088 92.2845 66.3007 92.2845 66.6549V69.7704C92.2893 70.1245 91.9947 70.4164 91.6325 70.4164Z" fill="#37867E"/>
<path d="M39.7989 70.8758C41.2898 70.8758 42.4985 69.6781 42.4985 68.2006C42.4985 66.7231 41.2898 65.5254 39.7989 65.5254C38.3079 65.5254 37.0992 66.7231 37.0992 68.2006C37.0992 69.6781 38.3079 70.8758 39.7989 70.8758Z" fill="#37867E"/>
</g>
<g opacity="0.8">
<path d="M91.6325 78.6909H46.4199C46.0625 78.6909 45.7679 78.3989 45.7679 78.0448V74.9293C45.7679 74.5751 46.0625 74.2832 46.4199 74.2832H91.6325C91.9899 74.2832 92.2845 74.5751 92.2845 74.9293V78.0448C92.2893 78.3989 91.9947 78.6909 91.6325 78.6909Z" fill="#37867E"/>
<path d="M42.4684 76.9049C42.7072 75.4465 41.7078 74.0723 40.2361 73.8356C38.7643 73.5989 37.3776 74.5894 37.1388 76.0478C36.8999 77.5062 37.8994 78.8804 39.3711 79.117C40.8428 79.3537 42.2295 78.3633 42.4684 76.9049Z" fill="#37867E"/>
</g>
<g opacity="0.8">
<path d="M91.6325 86.9653H46.4199C46.0625 86.9653 45.7679 86.6733 45.7679 86.3192V83.2037C45.7679 82.8495 46.0625 82.5576 46.4199 82.5576H91.6325C91.9899 82.5576 92.2845 82.8495 92.2845 83.2037V86.3192C92.2893 86.6733 91.9947 86.9653 91.6325 86.9653Z" fill="#37867E"/>
<path d="M39.7989 87.4246C41.2898 87.4246 42.4985 86.2269 42.4985 84.7494C42.4985 83.272 41.2898 82.0742 39.7989 82.0742C38.3079 82.0742 37.0992 83.272 37.0992 84.7494C37.0992 86.2269 38.3079 87.4246 39.7989 87.4246Z" fill="#37867E"/>
</g>
<path opacity="0.8" d="M91.6325 95.2397H46.4199C46.0625 95.2397 45.7679 94.9477 45.7679 94.5936V91.4781C45.7679 91.124 46.0625 90.832 46.4199 90.832H91.6325C91.9899 90.832 92.2845 91.124 92.2845 91.4781V94.5936C92.2893 94.9525 91.9947 95.2397 91.6325 95.2397Z" fill="#37867E"/>
<path opacity="0.8" d="M39.7989 95.6991C41.2898 95.6991 42.4985 94.5013 42.4985 93.0238C42.4985 91.5464 41.2898 90.3486 39.7989 90.3486C38.3079 90.3486 37.0992 91.5464 37.0992 93.0238C37.0992 94.5013 38.3079 95.6991 39.7989 95.6991Z" fill="#37867E"/>
</g>
<path opacity="0.8" d="M73.2519 61.7973H37.7899C37.4711 61.7973 37.2103 61.5389 37.2103 61.223V57.9639C37.2103 57.6481 37.4711 57.3896 37.7899 57.3896H73.2519C73.5707 57.3896 73.8315 57.6481 73.8315 57.9639V61.223C73.8315 61.5389 73.5707 61.7973 73.2519 61.7973Z" fill="#37867E"/>
<path d="M114.2 17.3385C114.104 15.8788 113.215 14.5867 111.882 13.9598L94.6171 5.83361C93.5111 5.31197 92.2265 5.31197 91.1206 5.83361L73.8556 13.9598C72.5227 14.5867 71.6341 15.8788 71.5375 17.3385C69.9196 42.1476 85.9676 51.183 91.2317 53.4658C92.2748 53.9205 93.4628 53.9205 94.506 53.4658C99.7652 51.183 115.818 42.1428 114.2 17.3385Z" fill="#428F87"/>
<path d="M87.6483 9.2601C87.5565 9.2601 87.4696 9.20746 87.4261 9.12132C87.3682 9.00168 87.4213 8.85332 87.542 8.79589L91.6228 6.87682C91.7436 6.81939 91.8933 6.87203 91.9512 6.99168C92.0092 7.11132 91.9561 7.25967 91.8353 7.3171L87.7545 9.23617C87.7159 9.25053 87.6821 9.2601 87.6483 9.2601Z" fill="white"/>
<path d="M72.8607 22.6459C72.7303 22.6459 72.6192 22.5406 72.6144 22.4114C72.5613 20.7986 72.5903 19.1141 72.7013 17.4104C72.7689 16.3719 73.4016 15.4482 74.3578 14.9984L85.9724 9.53307C86.0932 9.47564 86.2429 9.52828 86.3008 9.64793C86.3588 9.76757 86.3057 9.91592 86.1849 9.97335L74.5655 15.4386C73.7735 15.8119 73.2471 16.5776 73.1891 17.4439C73.078 19.1332 73.049 20.7986 73.107 22.3971C73.1118 22.5311 73.0056 22.6459 72.8704 22.6507C72.8655 22.6459 72.8607 22.6459 72.8607 22.6459Z" fill="white"/>
<path d="M110.023 18.3052C110.003 17.9367 109.781 17.6065 109.443 17.4486L93.3034 9.84886C93.0281 9.71965 92.7094 9.71965 92.4341 9.84886L76.2944 17.4438C75.9563 17.6017 75.7342 17.9319 75.7148 18.3004C75.2367 27.556 77.3955 35.2754 82.1282 41.2575C85.7406 45.8183 89.9615 48.2638 92.439 49.4076C92.7094 49.532 93.0233 49.532 93.2986 49.4076C95.7712 48.2686 99.9969 45.8231 103.609 41.2575C108.342 35.2801 110.501 27.5608 110.023 18.3052Z" fill="#07655B"/>
<path d="M82.6209 28.4504C83.9538 27.6321 85.7068 28.058 86.5085 29.398L90.2609 35.7008C90.6376 36.3325 91.5794 36.2703 91.8643 35.5955L100.306 15.7061C100.726 14.7154 102.209 15.0122 102.218 16.0889C102.276 22.1094 100.939 33.5903 91.4683 43.401C91.4683 43.401 86.069 41.4676 81.5343 32.1977C80.8775 30.8529 81.3459 29.2305 82.6209 28.4504Z" fill="white"/>
<path d="M117.021 127.932C117.021 127.932 117.33 129.664 117.479 131.382C117.537 132.052 117.016 132.636 116.34 132.665C114.031 132.76 109.1 132.947 107.328 132.866C107.062 132.856 106.889 132.583 106.985 132.339C107.067 132.134 107.227 131.966 107.429 131.875L115.581 128.161L117.021 127.932Z" fill="#07655B"/>
<path d="M117.276 126.911L117.03 128.984C117.03 128.984 115.601 129.644 114.625 128.902L115.214 126.591L117.276 126.911Z" fill="url(#paint0_linear_1207_1281)"/>
<path d="M117.088 87.918C117.194 88.4588 117.663 114.948 114.809 126.816C114.76 127.008 114.862 127.209 115.045 127.285C115.485 127.462 116.344 127.721 117.373 127.754C117.692 127.764 117.977 127.558 118.069 127.257C118.885 124.505 122.797 110.703 123.308 97.5229C123.878 82.7925 123.308 97.0204 123.308 97.0204L122.975 87.918H117.088Z" fill="#07655B"/>
<path d="M126.399 128.836C126.399 128.836 126.892 129.712 127.37 132.038C127.457 132.459 127.157 132.861 126.728 132.904C125.965 132.98 124.791 133.071 123.854 133.067C123.419 133.062 123.081 132.688 123.135 132.263C123.241 131.415 123.564 130.023 124.564 128.936L126.399 128.836Z" fill="#07655B"/>
<path d="M126.829 126.17L126.25 129.305C126.25 129.305 125.675 129.726 124.54 129.42L124.815 126.046L126.829 126.17Z" fill="url(#paint1_linear_1207_1281)"/>
<path d="M128.399 88.7309C130.736 102.705 127.892 123.269 126.93 127.294C126.873 127.538 126.67 127.73 126.419 127.773C125.989 127.845 125.284 127.902 124.593 127.701C124.352 127.634 124.187 127.419 124.178 127.17C124.047 123.916 124.279 103.94 122.101 96.0435C121.99 95.6415 121.744 95.2921 121.401 95.0529L117.175 92.0761L116.852 87.2617L128.399 88.7309Z" fill="#07655B"/>
<path d="M113.51 62.2524C120.512 62.1375 128.239 64.0757 128.239 64.0757C130.325 76.1453 128.606 90.067 128.606 90.067C123.183 91.474 117.069 89.2055 117.069 89.2055C116.166 84.1614 111.964 69.9622 111.964 69.9622C108.545 69.541 105.725 68.5647 103.402 67.2678C105.174 65.2339 106.005 62.6448 106.372 61.1182C108.844 61.8791 111.346 62.2907 113.51 62.2524Z" fill="#52DACE"/>
<path d="M92.8206 52.0296C93.5063 51.2065 94.3804 51.5941 94.3804 51.5941C95.4091 55.9061 100.813 59.4044 106.367 61.1129C106.005 62.6443 105.169 65.2286 103.397 67.2626C94.1873 62.1371 92.8206 52.0296 92.8206 52.0296Z" fill="url(#paint2_linear_1207_1281)"/>
<path d="M92.9896 52.2403C92.9171 52.4652 93.7526 52.8146 94.2404 51.8862C94.2597 51.4411 94.5301 49.5364 94.2645 49.1775C92.835 47.2488 90.0678 44.832 90.0678 44.832C89.5993 45.2915 89.9857 45.7365 89.9857 45.7365L91.3282 47.1244C91.0481 47.6269 90.7053 48.0528 90.5459 48.6606C90.4252 49.12 90.4976 49.613 90.7342 50.0341C90.9709 50.4552 91.2896 51.0008 91.5939 51.4315C92.1686 52.2355 92.9896 52.2403 92.9896 52.2403Z" fill="url(#paint3_linear_1207_1281)"/>
<path d="M91.9174 48.0195L93.1393 49.0485L93.5256 50.0726L92.4342 51.2738C92.4342 51.2738 92.0672 49.2447 91.7967 48.8044C91.5214 48.3641 91.6615 48.1487 91.9174 48.0195Z" fill="url(#paint4_linear_1207_1281)"/>
<path d="M125.549 70.7943L128.234 64.0752C128.234 64.0752 134.773 68.4781 135.85 74.063C134.614 74.1539 132.363 74.4698 130.166 75.5753C129.683 72.9383 125.549 70.7943 125.549 70.7943Z" fill="#52DACE"/>
<path d="M119.836 77.1168C119.836 77.1168 127.182 81.2277 129.659 77.7198C130.176 76.9923 130.296 76.2649 130.171 75.5758C132.373 74.475 134.619 74.1544 135.855 74.0635C136.179 75.748 136.01 77.5379 135.01 79.3469C130.668 87.2146 118.865 78.9114 118.865 78.9114L119.836 77.1168Z" fill="url(#paint5_linear_1207_1281)"/>
<path d="M120.715 82.3177L116.707 68.4487C116.663 68.2908 116.528 68.1759 116.364 68.1568C115.639 68.0706 113.534 67.8361 111.105 67.6351C108.178 67.3911 104.778 67.1901 102.75 67.3623C102.46 67.3863 102.286 67.6878 102.417 67.9462C103.571 70.2625 108.323 79.6808 110.699 82.7628C110.776 82.8633 110.902 82.9255 111.027 82.9255L120.329 82.8393C120.599 82.8346 120.792 82.5761 120.715 82.3177Z" fill="#4B968E"/>
<path d="M110.689 66.4343L107.782 65.9558C107.627 65.9318 107.502 66.0754 107.55 66.2238L107.84 67.0852C107.864 67.1618 107.932 67.2144 108.009 67.224L110.805 67.5925C110.95 67.6116 111.071 67.4824 111.037 67.3388L110.858 66.5827C110.839 66.5061 110.771 66.4439 110.689 66.4343Z" fill="#6FB2AC"/>
<path d="M112.862 68.8699L112.621 67.6352C112.597 67.5108 112.495 67.4199 112.365 67.4055L106.497 66.8169C106.299 66.7977 106.14 66.9748 106.188 67.1662L106.56 68.7072C106.589 68.8316 106.7 68.9178 106.826 68.9274L112.563 69.2145C112.751 69.2193 112.901 69.0518 112.862 68.8699Z" fill="#6FB2AC"/>
<path d="M119.749 78.9685C119.749 78.9685 120.309 76.6953 120.082 75.8865C119.855 75.0778 119.421 74.044 117.967 74.2738C116.513 74.5035 114.799 75.1113 114.799 75.1113C114.799 75.1113 114.886 76.1641 115.992 75.8243L115.306 76.3508C115.306 76.3508 115.403 77.193 116.34 76.7432L115.702 77.4419C115.702 77.4419 116.103 78.131 116.789 77.6908C117.47 77.2409 117.803 79.2413 119.749 78.9685Z" fill="url(#paint6_linear_1207_1281)"/>
<path d="M120.599 56.619L122.825 63.0032C122.864 63.1085 122.821 63.2281 122.719 63.2808C122.111 63.6158 119.923 64.5777 117.286 62.917C117.011 62.7448 116.823 62.4624 116.784 62.1418L116.064 56.6143H120.599V56.619Z" fill="url(#paint7_linear_1207_1281)"/>
<path d="M115.75 50.7041C115.75 50.7041 113.302 55.2697 113.616 57.1122C113.93 58.9547 116.963 58.8255 119.609 57.3275L121.459 52.3982L115.75 50.7041Z" fill="url(#paint8_linear_1207_1281)"/>
<path d="M119.498 54.9057C119.392 54.8579 119.348 54.7287 119.416 54.6282C119.614 54.3314 119.981 53.7237 120.097 53.1972C120.097 53.1972 120.536 52.9197 118.976 52.5464C117.417 52.1779 115.094 51.6036 114.601 50.2875C114.123 49.0049 115.379 45.7794 117.373 48.3493C117.45 48.445 117.6 48.4498 117.673 48.3493C118.001 47.9282 118.861 47.0524 120.058 47.5836C121.179 48.0813 121.304 48.8949 121.29 49.3017C121.285 49.4213 121.396 49.517 121.512 49.4931C122.077 49.3878 123.434 49.2921 124.067 50.6752C124.588 51.8094 124.25 52.4554 123.941 52.7713C123.84 52.8718 123.883 53.0393 124.023 53.0824C124.395 53.1972 124.873 53.5083 124.825 54.3697C124.757 55.5614 123.415 55.4561 123.028 55.4034C122.966 55.3939 122.903 55.4178 122.859 55.4609C122.531 55.8198 121.048 57.3512 119.45 57.5379C119.31 57.5522 119.203 57.4182 119.247 57.289L119.942 55.2934C119.976 55.2024 119.928 55.0972 119.841 55.0589L119.498 54.9057Z" fill="#4E4E4E"/>
<path d="M119.218 55.1928C119.218 55.1928 120.961 54.0107 121.087 55.0061C121.212 56.0016 119.517 56.4514 118.677 56.0781L119.218 55.1928Z" fill="url(#paint9_linear_1207_1281)"/>
</g>
<defs>
<linearGradient id="paint0_linear_1207_1281" x1="117.275" y1="127.924" x2="114.624" y2="127.924" gradientUnits="userSpaceOnUse">
<stop stop-color="#FF928E"/>
<stop offset="1" stop-color="#FEB3B1"/>
</linearGradient>
<linearGradient id="paint1_linear_1207_1281" x1="126.829" y1="127.79" x2="124.54" y2="127.79" gradientUnits="userSpaceOnUse">
<stop stop-color="#FF928E"/>
<stop offset="1" stop-color="#FEB3B1"/>
</linearGradient>
<linearGradient id="paint2_linear_1207_1281" x1="125.377" y1="59.3875" x2="111.833" y2="59.3875" gradientUnits="userSpaceOnUse">
<stop stop-color="#FF928E"/>
<stop offset="1" stop-color="#FEB3B1"/>
</linearGradient>
<linearGradient id="paint3_linear_1207_1281" x1="99.3436" y1="38.2334" x2="93.1913" y2="47.0559" gradientUnits="userSpaceOnUse">
<stop stop-color="#FF928E"/>
<stop offset="1" stop-color="#FEB3B1"/>
</linearGradient>
<linearGradient id="paint4_linear_1207_1281" x1="92.8875" y1="50.3141" x2="89.1436" y2="44.5054" gradientUnits="userSpaceOnUse">
<stop stop-color="#FF928E"/>
<stop offset="1" stop-color="#FEB3B1"/>
</linearGradient>
<linearGradient id="paint5_linear_1207_1281" x1="136.002" y1="78.3987" x2="118.863" y2="78.3987" gradientUnits="userSpaceOnUse">
<stop stop-color="#FF928E"/>
<stop offset="1" stop-color="#FEB3B1"/>
</linearGradient>
<linearGradient id="paint6_linear_1207_1281" x1="120.135" y1="76.6176" x2="114.796" y2="76.6176" gradientUnits="userSpaceOnUse">
<stop stop-color="#FF928E"/>
<stop offset="1" stop-color="#FEB3B1"/>
</linearGradient>
<linearGradient id="paint7_linear_1207_1281" x1="117.562" y1="54.2029" x2="120.355" y2="64.8259" gradientUnits="userSpaceOnUse">
<stop stop-color="#FF928E"/>
<stop offset="1" stop-color="#FEB3B1"/>
</linearGradient>
<linearGradient id="paint8_linear_1207_1281" x1="123.049" y1="45.5504" x2="114.853" y2="58.7181" gradientUnits="userSpaceOnUse">
<stop stop-color="#FF928E"/>
<stop offset="1" stop-color="#FEB3B1"/>
</linearGradient>
<linearGradient id="paint9_linear_1207_1281" x1="125.388" y1="47.006" x2="117.192" y2="60.1737" gradientUnits="userSpaceOnUse">
<stop stop-color="#FF928E"/>
<stop offset="1" stop-color="#FEB3B1"/>
</linearGradient>
<clipPath id="clip0_1207_1281">
<rect width="136" height="134" fill="white"/>
</clipPath>
</defs>
</svg>
