<svg width="286" height="192" viewBox="0 0 286 192" fill="none" xmlns="http://www.w3.org/2000/svg">
<g clip-path="url(#clip0_1207_1170)">
<path d="M269.195 144.847C262.205 140.939 257.198 136.436 258.499 128.509C259.478 122.566 263.172 117.716 265.91 112.927C279.357 89.3941 277.213 73.3662 266.84 63.02C249.7 45.9004 210.066 44.3125 181.215 50.0066C157.903 54.6091 144.816 64.459 135.632 73.391C129.51 79.3456 125.11 84.9033 120.574 88.2156C118.096 90.0268 115.58 91.1681 112.705 91.3418C96.7172 92.3094 65.1639 72.6963 28.4797 108.089C16.3343 119.812 10.0633 134.141 9.81543 150.479C9.5056 170.96 18.0818 185.921 20.672 191.417L277.882 191.392C293.733 158.989 269.195 144.847 269.195 144.847Z" fill="#EBF3FA" fill-opacity="0.1"/>
<path d="M156.961 191.392H236.03C236.03 191.392 248.585 186.591 247.928 180.388C247.271 174.186 226.946 182.125 226.946 182.125C226.946 182.125 228.433 175.836 223.067 174.186C217.701 172.536 199.359 190.809 192.332 182.783C185.305 174.756 192.455 162.276 176.989 162.19C161.509 162.115 156.961 191.392 156.961 191.392Z" fill="#A8D29F" fill-opacity="0.5"/>
<path d="M114.142 190.908H178.216C180.223 190.908 181.872 189.258 181.872 187.248V58.9751C181.872 56.9654 180.223 55.3154 178.216 55.3154H114.142C112.135 55.3154 110.486 56.9654 110.486 58.9751V187.248C110.486 189.27 112.135 190.908 114.142 190.908Z" fill="#4A75CB"/>
<path d="M107.214 190.908H171.288C173.295 190.908 174.944 189.258 174.944 187.248V58.9751C174.944 56.9654 173.295 55.3154 171.288 55.3154H107.214C105.207 55.3154 103.558 56.9654 103.558 58.9751V187.248C103.571 189.27 105.207 190.908 107.214 190.908Z" fill="#AFCDFB"/>
<path d="M128.791 60.4639H147.356C147.753 60.4639 148.075 60.7864 148.075 61.1834C148.075 61.5804 147.753 61.9029 147.356 61.9029H128.804C128.407 61.9029 128.085 61.5804 128.085 61.1834C128.072 60.7864 128.395 60.4639 128.791 60.4639Z" fill="#4A75CB"/>
<path d="M150.653 60.4639C151.049 60.4639 151.372 60.7864 151.372 61.1834C151.372 61.5804 151.049 61.9029 150.653 61.9029C150.256 61.9029 149.934 61.5804 149.934 61.1834C149.922 60.7864 150.256 60.4639 150.653 60.4639Z" fill="#4A75CB"/>
<path d="M143.031 183.414C143.031 180.834 140.949 178.75 138.371 178.75C135.793 178.75 133.711 180.834 133.711 183.414C133.711 185.995 135.793 188.079 138.371 188.079C140.949 188.079 143.031 185.995 143.031 183.414Z" fill="#4A75CB"/>
<path d="M109.661 175.736H169.013V66.0717L109.661 66.0717L109.661 175.736Z" fill="#D5E7F7"/>
<path d="M109.661 175.751H169.013V163.023H109.661V175.751Z" fill="#D5E7F7"/>
<path d="M222.856 101.799C222.856 101.799 223.377 99.2928 224.69 98.7097C225.992 98.1391 226.785 95.8316 227.305 96.4643C227.826 97.097 227.144 101.278 226.153 101.799C225.161 102.32 224.69 102.866 224.69 102.866L222.856 101.799Z" fill="#F4AC75"/>
<path d="M200.424 91.7998C200.424 91.7998 208.753 106.339 211.777 109.019L222.856 100.744C222.856 100.744 224.467 101.24 225.174 102.853C225.174 102.853 218.444 116.574 211.826 117.157C205.196 117.74 195.901 100.707 195.901 100.707L200.424 91.7998Z" fill="#E58638"/>
<path d="M174.646 181.778C174.646 181.778 172.725 183.564 173.097 184.83C173.469 186.095 175.216 186.951 175.439 188.502C175.675 190.052 176.617 190.896 177.46 190.896C178.302 190.896 181.487 190.896 181.487 190.896C181.487 190.896 182.107 189.804 180.607 189.469C179.108 189.134 178.538 187.323 178.637 185.624C178.736 183.936 178.501 181.679 178.501 181.679L175.303 180.922L174.646 181.778Z" fill="#233862"/>
<path d="M198.652 190.834C198.714 190.859 198.801 190.884 198.937 190.909H209.571C209.484 190.537 209.162 189.767 207.86 189.556C206.175 189.284 203.262 188.304 202.606 186.145C202.581 186.071 202.568 186.008 202.556 185.934C202.035 183.627 198.28 186.641 198.28 186.641C198.28 186.641 198.268 186.728 198.255 186.889C198.156 187.745 197.933 190.474 198.652 190.834Z" fill="#233862"/>
<path d="M207.402 129.215C207.402 129.215 206.832 136.349 206.162 144.908C205.245 156.545 204.155 170.836 204.043 173.553C203.857 178.254 203.101 185.772 203.101 185.772C203.101 185.772 201.317 187.558 197.747 186.802C197.747 186.802 194.562 176.059 193.658 164.708C193.645 164.521 193.633 164.335 193.62 164.149C192.778 152.587 191.464 128.235 191.464 128.235L207.402 129.215Z" fill="#2B478B"/>
<path d="M207.402 129.215C207.402 129.215 206.832 136.349 206.162 144.908L193.658 164.708C193.645 164.521 193.633 164.335 193.62 164.149C192.778 152.587 191.464 128.235 191.464 128.235L207.402 129.215Z" fill="#233862"/>
<path d="M204.799 130.059C204.799 130.059 194.513 155.875 187.746 167.995C180.979 180.128 178.872 183.515 178.872 183.515C178.872 183.515 174.993 181.964 174.646 180.909C174.646 180.909 177.236 157.488 181.76 151.781C184.325 148.556 187.325 138.88 187.461 135.493C187.597 132.106 188.378 125.407 188.378 125.407L204.799 130.059Z" fill="#2B478B"/>
<path d="M199.52 90.2123C199.978 87.5079 199.991 85.9076 199.991 85.9076L194.773 81.7021C194.971 87.4955 191.266 90.2744 191.266 90.2744C191.266 90.2744 198.218 93.6983 202.246 92.4329C202.246 92.4329 201.255 91.1676 199.52 90.2123Z" fill="#F4AC75"/>
<path d="M201.18 87.5329C201.18 87.5329 194.451 87.5081 194.525 83.3151C194.6 79.122 193.794 76.2936 198.094 76.1323C202.395 75.971 203.2 77.5837 203.51 78.998C203.833 80.3998 202.94 87.4337 201.18 87.5329Z" fill="#F4AC75"/>
<path d="M207.848 129.811C207.724 129.91 207.588 129.972 207.426 129.972C205.915 129.947 201.515 130.791 197.797 130.406C194.661 130.108 191.873 129.178 188.899 127.838C188.502 127.665 187.585 127.168 187.61 126.734C187.622 126.25 187.672 125.543 187.734 124.662C187.944 121.574 188.316 116.276 187.957 110.16C187.895 109.019 187.857 107.89 187.857 106.774C187.833 98.4869 189.469 91.1924 192.765 88.7237C193.05 88.5252 194.773 89.3688 196.372 90.1504C197.846 90.8699 199.309 90.9567 200.697 90.6714L202.085 91.8995C203.77 93.475 205.629 95.6088 206.435 98.8466C207.117 101.601 207.526 106.588 207.749 111.736C207.848 114.068 207.935 116.425 207.947 118.671V118.745C207.972 118.968 207.972 119.204 207.972 119.427C208.034 125.171 207.947 129.724 207.848 129.811Z" fill="#EE9849"/>
<path d="M187.721 124.65C187.932 121.561 188.304 116.264 187.944 110.148C187.882 109.006 187.845 107.878 187.845 106.761C189.221 103.424 190.349 101.005 190.349 101.005H193.819C193.806 101.005 196.347 118.373 187.721 124.65Z" fill="#E58638"/>
<path d="M165.017 140.132L165.946 133.644C166.219 131.709 168.028 130.357 169.962 130.63L175.043 131.349L175.241 129.972C175.328 129.327 175.923 128.88 176.567 128.98L180.979 129.612C181.289 129.662 181.562 129.823 181.748 130.071C181.934 130.319 182.02 130.63 181.971 130.94L181.772 132.317L184.71 132.739C184.821 132.751 184.945 132.776 185.057 132.801L186.668 133.036C188.589 133.309 189.94 135.108 189.667 137.031L188.75 143.444C188.477 145.367 186.68 146.72 184.759 146.447L183.557 146.273C183.309 146.298 183.049 146.285 182.789 146.248L168.028 144.139C166.095 143.866 164.732 142.067 165.017 140.132ZM180.855 130.332L176.443 129.699C176.394 129.687 176.357 129.699 176.307 129.699C176.121 129.724 175.972 129.873 175.948 130.071L175.749 131.448L181.029 132.205L181.227 130.828C181.264 130.592 181.103 130.369 180.855 130.332Z" fill="#233862"/>
<path d="M180.979 125.729L180.322 126.858C180.322 126.858 181.611 129.588 178.55 130.617C178.55 130.617 177.237 130.952 177.125 130.034C177.013 129.116 177.212 129.476 177.013 128.186C176.828 126.896 177.323 125.754 178.278 125.444L179.021 124.725L180.979 125.729Z" fill="#F4AC75"/>
<path d="M179.232 126.039C180.484 126.287 181.834 126.188 181.834 126.188C181.834 126.188 185.54 114.725 186.011 113.683C186.482 112.641 197.016 100.248 197.016 100.248L192.629 89.2568C192.629 89.2568 181.24 108.299 180.087 110.979C178.178 115.395 177.509 125.307 177.509 125.307C177.509 125.307 178.253 125.841 179.232 126.039Z" fill="#EE9849"/>
<path d="M194.599 82.9179C194.599 82.9179 195.293 82.9179 195.343 81.9751C195.393 81.0323 195.603 79.8166 196.31 80.1763C197.029 80.5237 196.954 81.1439 197.326 80.8338C197.698 80.5361 197.946 79.0474 200.214 79.3327C202.469 79.6057 203.25 80.5485 204.365 80.2632C205.481 79.9778 205.803 78.4147 205.803 78.4147C205.803 78.4147 205.406 78.9234 204.935 79.035C204.935 79.035 207.08 76.9509 205.344 74.9784C203.609 73.0059 201.379 73.7255 200.201 73.6014C197.611 73.3161 195.926 73.192 194.81 74.7427C193.67 76.281 193.224 81.0199 194.599 82.9179Z" fill="#2B478B"/>
<path d="M223.302 99.5913L226.004 94.1081C226.054 93.9965 226.19 93.9592 226.289 94.0089L227.789 94.7532C227.9 94.8028 227.937 94.9393 227.888 95.0385L225.186 100.522C225.137 100.633 225 100.671 224.901 100.621L223.402 99.8767C223.29 99.8271 223.24 99.6906 223.302 99.5913Z" fill="#2B478B"/>
<path d="M224.703 100.336L227.454 94.7533C227.491 94.6664 227.591 94.6416 227.677 94.6789L228.557 95.1131C228.644 95.1503 228.669 95.2495 228.632 95.3363L225.88 100.919C225.843 101.006 225.744 101.03 225.657 100.993L224.777 100.559C224.69 100.522 224.653 100.423 224.703 100.336Z" fill="#233862"/>
<path d="M199.904 87.4457C199.904 87.4457 199.842 88.1776 199.73 88.9591C199.73 88.9591 196.967 87.7806 195.988 86.1183C195.975 86.1059 197.202 87.1107 199.904 87.4457Z" fill="#C97C47"/>
<path d="M66.4809 165.648L68.7388 164.896L66.6351 158.563L64.3772 159.315L66.4809 165.648Z" fill="#2B478B"/>
<path d="M66.4718 165.664L67.1068 165.453L65.0032 159.12L64.3681 159.331L66.4718 165.664Z" fill="#233862"/>
<path d="M44.4175 190.759C44.4175 190.759 39.4726 191.181 39.2619 190.251C39.2371 190.126 38.5431 185.45 38.5431 185.45L37.7995 180.227C37.7376 179.793 38.1713 179.445 38.5803 179.631C38.9893 179.818 39.4478 180.202 39.7081 180.996C40.2658 182.696 41.9265 185.437 44.3928 186.157C46.983 186.901 44.4175 190.759 44.4175 190.759Z" fill="#163560"/>
<path d="M94.6104 181.653C94.6104 181.653 75.4752 167.027 70.0345 166.866C64.5938 166.705 46.9458 190.896 46.9458 190.896H53.5514C53.5514 190.896 65.2011 184.693 69.2909 178.8C69.6999 178.205 70.5798 178.229 70.964 178.85C73.0833 182.236 78.6231 190.548 82.2047 190.908C86.0466 191.268 94.6104 181.653 94.6104 181.653Z" fill="#233862"/>
<path d="M92.7761 141.844C92.7761 141.844 92.9001 142.8 93.0488 143.991C93.2595 145.529 93.5321 147.439 93.718 148.035L99.4685 149.499L99.8899 145.306C99.8899 145.306 98.4523 142.415 98.4523 138.321L92.7761 141.844Z" fill="#FFB27D"/>
<path d="M103.546 182.684L86.3812 185.004C86.3812 185.004 86.3316 184.669 86.2572 184.11C86.2325 183.937 88.3889 184.16 88.3889 183.962C88.3517 182.287 87.509 182.101 87.794 179.893C87.9799 178.429 87.3355 174.509 86.8769 173.256C86.3564 171.817 86.1209 169.075 86.0218 166.47C85.8854 163.207 85.9598 160.155 85.9598 160.143C85.7863 158.071 86.282 155.764 87.1124 153.568C88.7483 149.239 91.7846 146.795 93.2099 145.343C93.2099 145.343 94.9573 145.777 99.4933 144.413C99.6296 144.376 100.014 144.946 100.187 145.281C100.187 145.281 102.344 147.8 103.149 153.866C103.893 159.287 103.546 182.684 103.546 182.684Z" fill="#C65447"/>
<path d="M98.9356 156.31C98.8984 157.066 92.1689 178.515 92.9992 180.091C96.9899 187.745 88.3889 184.594 87.8436 182.622C88.0295 181.158 87.3479 174.509 86.8893 173.256C86.3688 171.817 86.1333 169.075 86.0342 166.47C86.2077 165.515 86.5919 164.534 87.1248 163.592C89.6282 163.195 99.1835 150.405 98.9356 156.31Z" fill="#B23F36"/>
<path d="M103.583 180.24C103.583 180.24 103.571 181.58 103.571 183.577C103.558 186.765 102.939 190.896 99.8279 190.896C94.7715 190.896 44.1573 190.896 44.1573 190.896C44.1573 190.896 42.6205 189.854 42.509 187.882C42.3974 185.785 43.0543 185.041 43.0543 185.041C43.0543 185.041 62.9827 184.346 67.0229 182.994C87.3107 176.171 103.583 180.24 103.583 180.24Z" fill="#2B478B"/>
<path d="M92.7761 141.844C92.7761 141.844 92.9001 142.8 93.0488 143.991C98.3655 142.44 98.4646 138.321 98.4646 138.321L92.7761 141.844Z" fill="#E8945B"/>
<path d="M91.9334 142.143C91.9334 142.143 98.4027 142.329 98.4522 138.309C98.5142 134.278 99.3817 131.586 95.2548 131.3C91.1278 131.003 90.3098 132.528 89.9628 133.881C89.6282 135.208 90.2603 141.994 91.9334 142.143Z" fill="#FFB27D"/>
<path d="M98.5762 139.885C98.5762 139.885 97.8946 139.773 98.0061 138.83C98.1177 137.887 98.1177 136.659 97.3493 136.882C96.5809 137.106 96.5437 137.726 96.2339 137.366C95.9241 137.006 95.9117 135.505 93.6437 135.394C91.3633 135.295 90.4462 136.076 89.3804 135.617C88.327 135.146 88.265 133.545 88.265 133.545C88.265 133.545 88.5625 134.116 89.021 134.302C89.021 134.302 87.2612 131.883 89.2937 130.233C91.3385 128.571 93.4206 129.662 94.6104 129.737C97.213 129.898 98.8985 130.047 99.7536 131.771C100.596 133.471 100.249 138.235 98.5762 139.885Z" fill="#233862"/>
<path d="M90.9667 140.146C90.9667 140.146 90.9295 140.642 91.9334 140.815C91.9334 140.815 92.8257 140.877 92.9001 140.431C92.9125 140.431 92.0449 140.418 90.9667 140.146Z" fill="white"/>
<path d="M71.249 165.539L70.1956 165.502C70.1956 165.502 68.0515 163.517 67.5682 164.882C67.5682 164.882 64.7921 163.778 64.6682 164.535C64.5938 165.043 65.2878 165.614 66.4528 166.457C67.3327 167.103 69.2165 167.661 69.9601 167.338L70.778 166.966L71.249 165.539Z" fill="#E49963"/>
<path d="M97.374 145.368C97.374 145.368 93.2719 147.105 91.1402 150.814C89.715 153.283 87.2735 157.488 85.7987 160.019C85.0179 161.371 83.7042 162.326 82.1799 162.661L77.1978 163.753L70.1955 165.502C70.1955 165.502 70.0344 165.8 70.0716 166.284C70.1336 166.979 70.5797 167.115 70.5797 167.115C70.5797 167.115 77.111 168.691 79.4409 168.864C85.1666 169.298 87.8932 168.542 88.7359 168.232C88.9218 168.157 89.0953 168.058 89.244 167.934C90.124 167.214 93.4949 164.398 95.2672 161.694C96.9898 159.064 101.749 152.253 101.749 152.253L97.374 145.368Z" fill="#C65447"/>
<path d="M85.9475 159.771L89.4176 153.804L85.9971 158.158C85.9971 158.146 85.9103 158.865 85.9475 159.771Z" fill="#B23F36"/>
<path d="M154.805 26.1623C154.805 26.1623 153.342 25.1575 153.305 26.274C153.268 27.3781 153.974 29.1148 154.371 28.2217C154.78 27.3285 154.966 26.9935 154.805 26.1623Z" fill="#E49963"/>
<path d="M285.405 192H0.594878C0.272652 192 0 191.739 0 191.404C0 191.082 0.260259 190.809 0.594878 190.809H285.405C285.727 190.809 286 191.069 286 191.404C286 191.739 285.727 192 285.405 192Z" fill="#2E3552"/>
<path d="M160.134 86.9746H117.736C115.964 86.9746 114.514 88.4261 114.514 90.2V95.3111C114.514 96.1175 114.824 96.8618 115.32 97.4325L114.514 101.104L119.137 98.5365H160.134C161.906 98.5365 163.356 97.0851 163.356 95.3111V90.2C163.356 88.4261 161.906 86.9746 160.134 86.9746Z" fill="#A8D29F"/>
<path d="M117.501 90.8575H160.382C160.667 90.8575 160.902 90.6218 160.902 90.3365C160.902 90.0511 160.667 89.8154 160.382 89.8154H117.501C117.216 89.8154 116.98 90.0511 116.98 90.3365C116.98 90.6218 117.216 90.8575 117.501 90.8575Z" fill="white"/>
<path d="M160.382 92.1104H117.501C117.216 92.1104 116.98 92.3461 116.98 92.6314C116.98 92.9167 117.216 93.1524 117.501 93.1524H160.382C160.667 93.1524 160.902 92.9167 160.902 92.6314C160.902 92.3461 160.667 92.1104 160.382 92.1104Z" fill="white"/>
<path d="M160.382 94.3184H117.501C117.216 94.3184 116.98 94.5541 116.98 94.8394C116.98 95.1247 117.216 95.3604 117.501 95.3604H160.382C160.667 95.3604 160.902 95.1247 160.902 94.8394C160.902 94.5541 160.667 94.3184 160.382 94.3184Z" fill="white"/>
<path d="M117.736 109.825H160.134C161.906 109.825 163.356 111.277 163.356 113.051V118.162C163.356 118.968 163.046 119.712 162.55 120.283L163.356 123.955L158.733 121.387H117.736C115.964 121.387 114.514 119.936 114.514 118.162V113.051C114.514 111.277 115.964 109.825 117.736 109.825Z" fill="#F1A34F"/>
<path d="M160.382 113.721H117.488C117.203 113.721 116.968 113.485 116.968 113.2C116.968 112.914 117.203 112.679 117.488 112.679H160.369C160.654 112.679 160.89 112.914 160.89 113.2C160.902 113.485 160.667 113.721 160.382 113.721Z" fill="white"/>
<path d="M117.488 114.961H160.369C160.654 114.961 160.89 115.197 160.89 115.482C160.89 115.767 160.654 116.003 160.369 116.003H117.488C117.203 116.003 116.968 115.767 116.968 115.482C116.968 115.197 117.203 114.961 117.488 114.961Z" fill="white"/>
<path d="M117.488 117.17H160.369C160.654 117.17 160.89 117.406 160.89 117.691C160.89 117.976 160.654 118.212 160.369 118.212H117.488C117.203 118.212 116.968 117.976 116.968 117.691C116.968 117.406 117.203 117.17 117.488 117.17Z" fill="white"/>
<path d="M160.134 132.677H117.736C115.964 132.677 114.514 134.128 114.514 135.902V141.013C114.514 141.82 114.824 142.564 115.32 143.135L114.514 146.807L119.137 144.239H160.134C161.906 144.239 163.356 142.787 163.356 141.013V135.902C163.356 134.128 161.906 132.677 160.134 132.677Z" fill="#699DEE"/>
<path d="M117.501 136.572H160.382C160.667 136.572 160.902 136.337 160.902 136.051C160.902 135.766 160.667 135.53 160.382 135.53H117.501C117.216 135.53 116.98 135.766 116.98 136.051C116.98 136.337 117.216 136.572 117.501 136.572Z" fill="white"/>
<path d="M160.382 137.812H117.501C117.216 137.812 116.98 138.048 116.98 138.334C116.98 138.619 117.216 138.855 117.501 138.855H160.382C160.667 138.855 160.902 138.619 160.902 138.334C160.902 138.048 160.667 137.812 160.382 137.812Z" fill="white"/>
<path d="M160.382 140.021H117.501C117.216 140.021 116.98 140.257 116.98 140.543C116.98 140.828 117.216 141.064 117.501 141.064H160.382C160.667 141.064 160.902 140.828 160.902 140.543C160.902 140.257 160.667 140.021 160.382 140.021Z" fill="white"/>
<path d="M117.736 155.527H160.134C161.906 155.527 163.356 156.979 163.356 158.753V163.864C163.356 164.67 163.046 165.415 162.55 165.985L163.356 169.657L158.733 167.089H117.736C115.964 167.089 114.514 165.638 114.514 163.864V158.753C114.514 156.979 115.964 155.527 117.736 155.527Z" fill="#A8D29F"/>
<path d="M160.382 159.423H117.488C117.203 159.423 116.968 159.187 116.968 158.902C116.968 158.617 117.203 158.381 117.488 158.381H160.369C160.654 158.381 160.89 158.617 160.89 158.902C160.902 159.187 160.667 159.423 160.382 159.423Z" fill="white"/>
<path d="M117.488 160.676H160.369C160.654 160.676 160.89 160.911 160.89 161.197C160.89 161.482 160.654 161.718 160.369 161.718H117.488C117.203 161.718 116.968 161.482 116.968 161.197C116.968 160.911 117.203 160.676 117.488 160.676Z" fill="white"/>
<path d="M117.488 162.884H160.369C160.654 162.884 160.89 163.119 160.89 163.405C160.89 163.69 160.654 163.926 160.369 163.926H117.488C117.203 163.926 116.968 163.69 116.968 163.405C116.968 163.119 117.203 162.884 117.488 162.884Z" fill="white"/>
<path d="M125.091 81.1682C127.511 78.7459 127.511 74.8186 125.091 72.3963C122.671 69.974 118.748 69.974 116.328 72.3963C113.908 74.8186 113.908 78.7459 116.328 81.1682C118.748 83.5905 122.671 83.5905 125.091 81.1682Z" fill="#699DEE"/>
<path d="M161.373 82.7442H130.687C129.597 82.7442 128.704 81.851 128.704 80.7593C128.704 79.6676 129.597 78.7744 130.687 78.7744H161.373C162.464 78.7744 163.356 79.6676 163.356 80.7593C163.356 81.851 162.476 82.7442 161.373 82.7442Z" fill="#699DEE"/>
<path d="M147.282 74.5567H130.687C129.597 74.5567 128.704 73.6635 128.704 72.5718C128.704 71.4801 129.597 70.5869 130.687 70.5869H147.282C148.373 70.5869 149.265 71.4801 149.265 72.5718C149.265 73.6635 148.385 74.5567 147.282 74.5567Z" fill="#699DEE"/>
<path d="M133.86 75.9216C133.835 76.2814 133.996 76.5419 134.281 76.728C134.814 77.0753 135.781 77.1746 136.834 77.1994C136.971 77.1994 137.095 77.2118 137.206 77.2118C137.231 77.2118 137.268 77.2118 137.293 77.2242C137.318 77.2242 137.342 77.2242 137.355 77.2242C138.396 77.3234 138.26 77.6336 140.242 77.9437C142.498 78.3035 143.378 77.6584 143.527 77.3606C143.663 77.1001 142.709 76.728 141.643 76.3062C141.593 76.2814 141.544 76.269 141.494 76.2442C141.358 76.1821 141.209 76.1325 141.073 76.0705C139.809 75.5494 138.569 74.954 138.346 73.6142C138.111 72.2 139.387 68.4039 139.387 68.4039L135.83 67.7588C135.83 67.7588 135.198 71.7906 134.889 73.0311C134.715 73.701 134.38 74.2096 134.157 74.7803C134.145 74.8175 134.133 74.8547 134.108 74.9044C134.009 75.2269 133.885 75.5619 133.86 75.9216Z" fill="#E49963"/>
<path d="M133.86 75.9209C133.835 76.2806 133.996 76.5412 134.281 76.7272C134.851 77.0374 135.806 77.149 136.834 77.1987C136.971 77.1987 137.095 77.2111 137.206 77.2235C137.231 77.2235 137.268 77.2235 137.293 77.2359C137.318 77.2359 137.342 77.2359 137.355 77.2359C138.396 77.3351 138.26 77.6453 140.242 77.9554C142.498 78.3152 143.378 77.6701 143.527 77.3723C143.663 77.1118 142.709 76.7397 141.643 76.3179C141.333 76.4171 139.846 76.8141 138.148 76.3675C136.661 75.9705 135.211 75.1145 134.145 74.792C134.133 74.8292 134.12 74.8664 134.095 74.916C134.009 75.2262 133.885 75.5611 133.86 75.9209Z" fill="#233862"/>
<path d="M157.42 73.7876C157.618 74.7925 159.043 74.6188 160.629 74.2342C162.216 73.8496 161.844 74.3086 164.1 74.0605C166.367 73.8124 167.049 72.9688 167.123 72.6339C167.185 72.3362 166.07 72.2245 164.868 72.0881C164.719 72.0756 164.57 72.0508 164.409 72.0384C163.058 71.8648 162.067 70.9964 160.828 70.2769C159.663 69.5946 157.928 66.8281 157.928 66.8281L154.829 67.0762C154.829 67.0762 156.453 69.5573 157.085 70.6242C157.457 71.2569 157.432 72.1005 157.395 72.7456C157.37 73.0805 157.345 73.4403 157.42 73.7876Z" fill="#E49963"/>
<path d="M160.629 74.234C162.216 73.8495 161.844 74.3085 164.1 74.0604C166.368 73.8123 167.049 72.9687 167.124 72.6337C167.186 72.336 166.07 72.2244 164.868 72.0879L164.856 72.1127C164.856 72.1127 163.492 73.0803 161.609 73.1176C160.072 73.1548 158.448 72.7206 157.382 72.733C157.358 73.0803 157.333 73.4401 157.407 73.7999C157.618 74.7923 159.043 74.631 160.629 74.234Z" fill="#233862"/>
<path d="M150.516 28.1602C150.516 28.1602 151.26 26.349 152.066 26.2745C152.884 26.2001 155.474 25.7907 155.647 26.1629C155.833 26.5351 155.647 27.8624 155.09 28.3463C154.532 28.8301 151.099 29.5992 151.099 29.5992L150.516 28.1602Z" fill="#E49963"/>
<path d="M145.522 53.9263L138.83 71.9515C138.83 71.9515 137.801 72.0508 136.822 71.7655C135.917 71.5049 134.876 70.8226 134.876 70.8226C134.876 70.8226 136.537 53.517 139.573 49.9194C142.622 46.3094 145.522 53.9263 145.522 53.9263Z" fill="#233862"/>
<path d="M119.062 46.6324C119.062 46.6324 138.284 40.1319 142.572 41.5089C146.86 42.8983 159.737 68.5281 159.737 68.5281C159.737 68.5281 159.452 68.9127 158.659 69.2104C157.915 69.4833 156.131 69.4709 156.131 69.4709C156.131 69.4709 144.518 59.5093 143.13 56.594C141.742 53.6911 141.197 50.9123 139.809 51.1976C138.421 51.4705 121.962 57.9834 118.232 54.1005C114.502 50.23 115.481 45.1933 115.481 45.1933L119.062 46.6324Z" fill="#2B478B"/>
<path d="M130.811 16.3625C131.121 15.7298 131.456 14.6009 131.629 12.5912C131.604 12.7897 131.257 15.3205 130.278 16.7595C126.275 19.3895 118.616 28.1602 118.765 29.8225C118.765 29.8225 116.063 25.2449 116.014 25.2076C116.014 25.2076 111.032 18.8684 116.931 15.246C119.93 13.3976 119.918 11.0282 119.794 8.98125C119.67 6.92193 120.612 -1.9356 126.622 0.384232C126.622 0.384232 127.589 -0.0499602 128.023 0.0244728C128.023 0.0244728 127.676 0.0865003 127.49 0.272583C128.184 0.235366 129.188 0.284988 130.018 0.756398C132.224 2.00935 134.195 13.2487 130.811 16.3625Z" fill="#163560"/>
<path d="M130.043 16.8957C130.068 16.9081 128.109 17.9129 126.647 17.5159C125.271 17.1438 124.367 15.345 124.379 15.345C124.962 15.2333 125.135 14.427 125.123 10.9658L125.383 11.0154L129.82 11.8962C129.82 11.8962 129.721 13.2981 129.721 14.613C129.733 15.7295 129.795 16.7716 130.043 16.8957Z" fill="#E49963"/>
<path d="M129.832 11.8964C129.832 11.8964 129.733 13.2982 129.733 14.6132C127.242 14.5388 125.928 12.2686 125.395 11.0156L129.832 11.8964Z" fill="#D68D5D"/>
<path d="M124.937 10.5323C124.937 10.5323 123.635 8.473 123.326 6.71141C123.103 5.45846 123.747 0.793987 128.419 1.46388C128.419 1.46388 129.783 1.60034 131.059 2.45632C132.075 3.13863 133.538 4.62729 131.902 8.69629L131.48 10.0733L124.937 10.5323Z" fill="#163560"/>
<path d="M130.662 13.1492C130.662 13.1492 124.776 13.2484 124.776 9.57641C124.776 5.90438 124.007 3.44809 127.762 3.2372C131.518 3.0263 132.249 4.41572 132.546 5.64387C132.856 6.87201 132.199 13.0251 130.662 13.1492Z" fill="#E49963"/>
<path d="M130.452 3.15099C130.452 3.15099 128.841 7.4557 126.374 8.08838C123.896 8.72106 122.818 8.06357 122.818 8.06357C122.818 8.06357 123.053 6.5625 123.45 3.92013C123.45 3.92013 129.237 1.10408 130.452 3.15099Z" fill="#163560"/>
<path d="M130.043 3.49818C130.043 3.49818 131.245 4.45341 131.542 5.39623C131.84 6.32664 131.964 8.24949 132.522 8.18746C132.522 8.18746 133.736 5.25977 132.373 3.60983C130.935 1.84825 130.043 3.49818 130.043 3.49818Z" fill="#163560"/>
<path d="M116.956 32.7251C116.373 30.2936 118.344 25.5671 120.413 21.6593C122.285 18.1114 124.218 15.2333 124.392 15.3449C129.324 18.2726 129.77 15.8412 129.77 15.8412C129.77 15.8412 134.244 16.4366 135.521 18.62C137.268 21.6469 139.189 30.703 141.06 30.5665C141.916 30.5045 150.591 27.2418 150.591 27.2418C150.591 27.2418 152.041 28.594 151.756 30.2564C151.756 30.2564 147.48 33.122 143.861 34.958C141.953 35.9257 140.218 36.608 139.4 36.4095C137.752 36.0249 135.174 32.1916 133.786 29.9462C133.786 29.9462 133.786 29.9338 133.773 29.9338C132.001 39.9947 134.418 42.2897 133.191 43.3442C131.902 44.4607 130.055 42.8107 126.003 44.5723C123.338 45.726 119.645 47.4008 117.166 47.6861C115.865 47.835 114.886 47.6117 114.576 46.7309C113.634 44.1753 118.059 37.3771 116.956 32.7251Z" fill="#699DEE"/>
<path d="M129.361 10.9294C129.361 10.9294 129.473 11.4008 130.625 11.3263C130.625 11.3263 131.592 11.2643 131.567 10.7557C131.567 10.7433 130.625 10.3835 129.361 10.9294Z" fill="white"/>
<path d="M114.551 46.7313C114.873 47.6121 115.84 47.8354 117.141 47.6865C118.864 46.9422 126.3 44.0517 126.213 42.1041C126.089 39.2136 124.788 39.1143 125.705 35.5539C126.449 32.6883 119.583 27.3539 118.48 26.2002C116.423 30.1079 116.361 30.294 116.943 32.7255C118.059 37.3776 113.634 44.1758 114.551 46.7313Z" fill="#3B76CA"/>
<path d="M133.773 29.9465C135.161 32.2043 137.739 36.0252 139.387 36.4097C140.205 36.5958 141.928 35.9259 143.849 34.9583C142.448 35.318 141.098 35.3056 139.772 35.1816C138.346 35.0451 137.925 33.2835 135.669 30.6536C134.207 28.954 133.848 29.3882 133.773 29.9465Z" fill="#3B76CA"/>
<path d="M126.883 35.479C126.883 35.479 128.122 34.5113 129.299 34.7346C130.477 34.9703 131.047 35.7767 131.01 36.1364C130.96 36.5086 130.34 37.5383 129.448 37.6375C128.543 37.7244 125.99 37.0793 125.99 37.0793L126.883 35.479Z" fill="#E49963"/>
<path d="M124.391 15.3457C124.391 15.3457 119.595 15.6434 117.935 17.9633C115.605 21.2135 109.99 35.7279 112.655 37.5764C115.642 39.6605 127.242 37.5143 127.242 37.5143C127.242 37.5143 127.601 35.8644 127.106 35.0581C126.61 34.2641 118.629 32.9615 118.257 32.6018C117.885 32.2296 122.867 25.4066 122.867 24.2901C122.867 23.1736 124.391 15.3457 124.391 15.3457Z" fill="#699DEE"/>
<path d="M150.988 22.193L154.272 21.3122C154.383 21.2874 154.482 21.3122 154.557 21.3743L155.015 21.6472L154.644 30.145L151.483 30.9885L151.248 30.9761L150.715 30.6536C150.641 30.604 150.591 30.5171 150.591 30.4179V22.6893C150.616 22.466 150.777 22.2427 150.988 22.193Z" fill="#233862"/>
<path d="M151.496 30.9886L154.78 30.1078C154.991 30.0582 155.164 29.8349 155.164 29.624V21.8954C155.164 21.6845 154.991 21.5604 154.78 21.6224L151.496 22.5032C151.285 22.5529 151.111 22.7762 151.111 22.9871V30.7157C151.124 30.9142 151.285 31.0382 151.496 30.9886Z" fill="#2B478B"/>
<path d="M153.925 22.6274L154.693 22.4041C154.805 22.3669 154.904 22.2429 154.891 22.1312C154.891 22.0196 154.792 21.9451 154.681 21.9823L153.912 22.2056C153.801 22.2429 153.702 22.3669 153.714 22.4786C153.714 22.6026 153.801 22.6646 153.925 22.6274Z" fill="#233862"/>
<path d="M154.817 28.1229C154.842 28.2966 155.04 28.3834 155.176 28.2717C155.461 28.0484 155.821 27.5646 155.821 26.535C155.821 24.9099 154.371 24.2896 154.817 28.1229Z" fill="#E49963"/>
</g>
<defs>
<clipPath id="clip0_1207_1170">
<rect width="286" height="192" fill="white"/>
</clipPath>
</defs>
</svg>
