<svg width="37" height="36" viewBox="0 0 37 36" fill="none" xmlns="http://www.w3.org/2000/svg">
<g clip-path="url(#clip0_1251_2)">
<path d="M17.676 31.076L8.93311 35.7614C8.64934 35.9139 8.3286 35.9825 8.00786 35.9591C7.68812 35.9358 7.38037 35.8216 7.12058 35.6294C6.86079 35.4371 6.65895 35.1746 6.53805 34.8717C6.41715 34.5686 6.38217 34.2372 6.43613 33.9149L8.10777 23.9867C8.15473 23.7072 8.13475 23.4199 8.04982 23.1499C7.96389 22.8799 7.81501 22.6352 7.61518 22.437L0.516935 15.4072C0.287122 15.1776 0.12426 14.8868 0.0483218 14.568C-0.0276166 14.2491 -0.0136265 13.915 0.0872916 13.6036C0.18821 13.292 0.373056 13.0157 0.620855 12.8059C0.868654 12.5961 1.16941 12.4612 1.48815 12.4165L11.2772 10.969C11.554 10.9278 11.8158 10.819 12.0416 10.6519C12.2674 10.4847 12.4493 10.2643 12.5732 10.0095L16.9506 0.978216C17.0925 0.684674 17.3123 0.437445 17.5851 0.264545C17.8579 0.0916456 18.1726 0 18.4933 0C18.8151 0 19.1298 0.0916456 19.4026 0.264545C19.6754 0.437445 19.8952 0.684674 20.0371 0.978216L24.3985 10.0062C24.5214 10.2614 24.7043 10.4821 24.9291 10.6493C25.1549 10.8164 25.4177 10.9251 25.6935 10.9657L35.4826 12.4132C35.8003 12.4609 36.0991 12.5981 36.3439 12.8091C36.5887 13.0201 36.7715 13.2968 36.8704 13.6078C36.9694 13.9187 36.9813 14.2516 36.9044 14.569C36.8275 14.8864 36.6646 15.1756 36.4348 15.4039L29.3525 22.437C29.1527 22.635 29.0038 22.8796 28.9169 23.1496C28.831 23.4196 28.811 23.7069 28.8579 23.9867L30.5286 33.9149C30.5835 34.2372 30.5476 34.5686 30.4267 34.8717C30.3058 35.1746 30.1039 35.4371 29.8441 35.6294C29.5843 35.8216 29.2766 35.9358 28.9568 35.9591C28.6361 35.9825 28.3164 35.9139 28.0316 35.7614L19.2887 31.076C19.0399 30.9423 18.7631 30.8723 18.4824 30.8723C18.2016 30.8723 17.9248 30.9423 17.676 31.076Z" fill="#DAE0EA"/>
</g>
<defs>
<clipPath id="clip0_1251_2">
<rect width="37" height="36" fill="white"/>
</clipPath>
</defs>
</svg>
